PathFileType	4	(X/Y/Z)	C:/Users/beibeiliu/ov580/test_trc/capture2\sequence.6_training_dense_left.trc
DataRate	CameraRate	NumFrames	NumMarkers	Units	OrigDataRate	OrigDataStartFrame	OrigNumFrames
120	120	19	19	mm	120	265	353
Frame#	Time	ThumbCMC			ThumbMCP			ThumbIP			ThumbTip			IndexMCP			IndexPIP			IndexTip			MiddleMCP			MiddlePIP			MiddleTip			RingMCP			RingPIP			RingTip			PinkyMCP			PinkyPIP			PinkyTip			BackHand1			BackHand2			BackHand3	
		X0	Y0	Z0	X1	Y1	Z1	X2	Y2	Z2	X3	Y3	Z3	X4	Y4	Z4	X5	Y5	Z5	X6	Y6	Z6	X7	Y7	Z7	X8	Y8	Z8	X9	Y9	Z9	X10	Y10	Z10	X11	Y11	Z11	X12	Y12	Z12	X13	Y13	Z13	X14	Y14	Z14	X15	Y15	Z15	X16	Y16	Z16	X17	Y17	Z17	X18	Y18	Z18	
264	2.2	-178.646	76.1559	-40.0098	-159.942	85.5786	-67.1806	-152.343	82.763	-100.093	-145.751	64.7296	-115.155	-207.184	45.2752	-103.138	-203.918	48.7644	-131.296	-176.733	56.387	-147.408	-177.929	37.3822	-111.433	-154.003	56.3343	-114.208	-152.255	65.486	-78.8864	-163.202	28.4727	-100.37	-140.699	50.7512	-96.221	-147.519	58.5614	-65.7365	-149.157	19.9437	-91.3486	-133.178	40.6598	-82.7917	-144.091	49.6156	-56.0075	-187.386	17.3716	-52.3631	-183.067	20.2589	-21.9052	-202.627	44.1281	-37.251	
265	2.20833	-181.584	77.0608	-44.4535	-161.808	83.5643	-67.5965	-154.527	85.6955	-95.9559	-147.299	63.9535	-113.327	-206.016	44.5752	-99.8263	-199.714	46.5547	-134.298	-175.849	55.3835	-145.86	-180.57	38.4154	-108.468	-153.347	52.9046	-114.739	-152.929	63.716	-77.6871	-161.915	31.929	-102.467	-137.987	49.6941	-94.2443	-146.994	57.7011	-65.2361	-149.516	19.4122	-90.1983	-134.068	44.5173	-79.1801	-146.994	49.4886	-52.2165	-186.679	13.2948	-50.4386	-184.147	17.6158	-22.5357	-204.492	43.8447	-38.7029	
266	2.21667	-183.224	75.1869	-43.9726	-164.49	81.6551	-69.5528	-156.742	83.6731	-95.6464	-148.211	62.6958	-113.186	-206.859	41.5687	-100.269	-205.083	43.2364	-131.467	-181.871	53.8324	-149.3	-178.259	34.8245	-109.099	-153.512	55.2735	-113.663	-156.109	63.8027	-74.696	-162.23	30.5066	-101.808	-139.533	50.9944	-94.989	-150.414	56.4548	-59.4162	-147.961	22.5905	-91.3194	-132.453	45.7319	-78.7447	-148.498	51.1771	-52.6565	-186.769	11.97	-53.9647	-179.794	15.4679	-20.8825	-203.127	40.8622	-37.8153	
267	2.225	-184.106	74.0788	-42.7059	-166.016	84.3669	-70.9288	-156.868	82.1739	-93.6677	-147.575	63.5928	-115.502	-208.904	40.9276	-100.337	-205.452	42.0761	-134.216	-183.844	48.8696	-155.643	-177.117	37.1952	-111.752	-154.793	55.9055	-113.63	-157.641	66.0153	-76.2018	-159.12	27.6758	-100.361	-140.052	54.535	-92.7521	-148.75	57.9854	-62.1097	-148.92	22.3907	-90.2849	-134.034	46.4354	-80.2824	-147.546	51.4835	-52.0507	-181.834	7.7298	-52.5892	-177.871	14.7058	-19.3125	-200.876	37.7563	-37.5844	
268	2.23333	-186.16	73.5872	-41.3639	-167.383	80.8627	-69.5691	-159.126	83.2189	-99.337	-148.416	65.6067	-113.415	-210.456	40.8073	-105.58	-209.201	39.0768	-130.125	-193.632	42.7053	-160.111	-175.771	35.1438	-110.701	-151.763	57.3465	-110.131	-155.391	65.2181	-78.1211	-156.232	28.8467	-100.651	-141.098	54.2173	-93.4588	-149.096	58.3785	-63.8461	-142.931	20.9267	-90.5481	-134.243	47.171	-80.1034	-150.99	48.987	-50.9729	-180.912	7.23555	-52.1941	-178.791	15.2421	-18.6902	-201.14	33.1053	-41.1062	
269	2.24167	-188.876	73.9336	-40.1419	-170.482	83.7745	-71.7469	-161.598	82.3419	-96.1278	-148.166	62.7302	-116.927	-207.734	37.537	-102.56	-207.841	34.4052	-130.85	-201.756	36.9629	-157.884	-175.182	31.2731	-107.548	-153.3	53.9766	-113.707	-154.64	63.3989	-77.4828	-157.868	31.9418	-102.228	-140.937	56.7094	-90.9847	-151.13	56.0541	-57.6075	-144.135	19.7495	-88.7264	-132.913	46.9946	-78.7428	-146.088	49.6458	-51.0562	-178.259	8.20856	-51.2667	-181.18	14.4606	-20.3062	-202.141	35.5846	-37.7963	
270	2.25	-188.528	66.5838	-40.653	-172.946	81.8049	-72.0009	-163.786	82.2946	-97.6716	-150.927	66.1907	-114.97	-207.737	32.5104	-103.845	-205.831	29.4694	-130.246	-203.731	29.1993	-155.557	-175.091	33.7025	-111.121	-153.205	54.7609	-113.039	-158.5	62.6626	-74.1618	-156.947	30.0261	-100.724	-138.02	53.4951	-92.5814	-154.511	56.9547	-58.1419	-143.227	19.6816	-87.6856	-134.147	46.9592	-81.4039	-148.478	50.0406	-47.3855	-176.503	5.88208	-51.7217	-176.325	13.0522	-20.2677	-201.568	28.9835	-38.5489	
271	2.25833	-191.969	65.0705	-41.6873	-175.868	80.0894	-72.0734	-166.678	81.1198	-96.7995	-152.425	62.3583	-111.354	-208.884	29.0028	-105.622	-208.615	28.4014	-130.812	-204.048	23.0389	-157.774	-172.845	30.6245	-110.743	-157.101	55.6366	-113.202	-157.943	63.9241	-77.2566	-157.105	27.4807	-98.0356	-143.486	55.5965	-91.2294	-152.566	55.2227	-58.8096	-143.612	21.7122	-87.2602	-133.798	49.2631	-75.8125	-151.335	46.7675	-48.1351	-174.01	2.20341	-53.4109	-177.212	10.2268	-19.6105	-199.612	26.6663	-40.426	
272	2.26667	-193.52	63.9407	-39.2371	-177.722	75.3201	-66.9171	-168.587	76.7545	-99.0612	-155.985	65.1489	-111.893	-203.858	23.078	-102.303	-206.678	23.9076	-126.87	-202.559	17.4509	-152.171	-172.47	27.7406	-109.819	-153.638	54.0796	-108.277	-159.99	62.4356	-76.9287	-154.774	28.4524	-99.9063	-143.791	53.5516	-93.5182	-156.07	55.0587	-60.089	-141.106	18.5973	-86.4986	-133.411	48.114	-77.068	-146.592	47.4332	-49.2874	-172.142	0.408346	-48.2409	-176.793	8.87617	-17.2591	-199.591	24.5368	-37.6038	
273	2.275	-195.46	60.3148	-41.7535	-179.804	74.3298	-66.5304	-170.513	73.1417	-95.5039	-157.156	63.021	-111.929	-206.529	23.1555	-100.313	-207.178	20.9125	-127.501	-205.054	15.3244	-153.603	-173.739	26.0714	-107.039	-154.192	50.7368	-111.601	-160.818	61.8106	-75.8247	-151.256	26.1903	-100.053	-144.005	53.3037	-93.1206	-156.428	52.8364	-57.5319	-141.212	19.0812	-85.8092	-132.674	48.9389	-75.4332	-149.184	50.6171	-49.9914	-171.259	-0.53413	-47.8844	-173.993	7.65319	-17.1675	-196.366	19.8845	-38.0322	
274	2.28333	-193.847	57.1295	-40.3237	-182.627	74.6592	-68.1865	-173.872	75.0946	-98.0583	-158.464	62.9539	-114.875	-200.971	18.0084	-101.899	-202.864	15.9628	-127.169	-200.877	9.40087	-153.918	-172.751	24.5476	-108.054	-158.018	53.8376	-110.882	-160.897	61.1305	-75.7561	-149.859	25.2228	-98.3706	-140.993	52.8358	-90.2552	-153.926	52.2287	-57.9317	-136.427	20.9853	-86.7712	-132.111	48.2502	-75.0753	-149.589	48.0856	-46.263	-171.065	0.95605	-50.4436	-173.014	6.48665	-21.5439	-197.55	18.1163	-35.9239	
275	2.29167	-197.187	56.8355	-42.1302	-183.751	72.2893	-69.1589	-175.037	72.3371	-98.2512	-156.81	58.0401	-116.95	-203.336	16.5033	-102.376	-203.873	13.9857	-131.096	-201.079	6.43499	-153.505	-169.266	24.6746	-108.78	-157.382	54.1448	-108.916	-158.595	55.7676	-72.8247	-152.619	24.4281	-97.2351	-141.309	53.7179	-88.5132	-157.413	50.6251	-55.8862	-138.921	20.7684	-85.6237	-134.97	48.9708	-75.6964	-151.254	44.5775	-46.8349	-165.772	-1.57272	-50.2513	-169.722	2.28078	-20.7146	-197.22	16.5356	-40.0406	
276	2.3	-194.102	53.3188	-39.7226	-183.138	70.0064	-69.6746	-174.079	70.1854	-94.2472	-157.746	57.706	-113.689	-201.811	14.6125	-105.786	-200.786	11.6827	-125.468	-197.657	5.65872	-150.024	-168.336	23.8888	-109.405	-155.353	52.2389	-109.116	-160.973	56.7409	-71.3465	-147.511	24.4152	-96.6273	-139.181	52.8676	-88.5014	-154.955	52.205	-57.9928	-135.174	24.2338	-86.856	-131.284	49.5712	-74.3159	-149.783	44.5373	-45.3535	-166.822	-2.92174	-50.2963	-168.814	3.39973	-21.0023	-197.071	14.2467	-38.5716	
277	2.30833	-194.953	55.0516	-38.8981	-181.863	67.9383	-68.3598	-172.82	69.8967	-94.8666	-156.85	59.6337	-112.72	-198.696	14.0261	-106.014	-199.487	12.0425	-129.827	-196.833	5.16569	-154.465	-166.854	22.9919	-106.6	-153.501	51.105	-109.965	-160.38	55.7416	-69.9764	-149.18	26.4714	-98.0862	-137.85	53.8522	-88.6072	-157.214	51.6701	-57.9865	-134.351	23.6333	-85.0627	-136.997	51.1999	-74.3192	-149.527	46.1359	-44.0028	-161.302	-2.29933	-49.4431	-167.288	4.86999	-18.9648	-191.888	13.8738	-41.0743	
278	2.31667	-196.144	54.2176	-39.0063	-185.092	71.1636	-70.5607	-175.371	71.1543	-97.2985	-156.272	60.1455	-115.572	-198.141	12.5609	-105.385	-195.464	10.8727	-130.425	-191.94	5.65234	-154.313	-167.99	24.5272	-107.674	-153.825	53.9193	-108.347	-160.335	56.3255	-71.8077	-145.19	26.4165	-96.3167	-139.596	56.3067	-86.2871	-154.098	53.124	-56.8429	-130.022	24.1318	-84.0694	-137.427	53.401	-73.504	-150.873	47.4398	-48.4798	-157.802	-1.04191	-48.852	-166.362	4.4815	-17.3444	-192.527	13.7144	-41.1747	
279	2.325	-196.983	53.0463	-41.0755	-182.723	67.3743	-68.0731	-175.875	72.3154	-98.6696	-156.359	61.2031	-114.036	-194.333	9.94658	-104.696	-194.417	10.3404	-129.853	-183.891	10.8672	-157.581	-163.314	25.4124	-108.412	-153.785	54.3383	-107.239	-160.998	56.761	-71.2999	-143.899	29.3239	-97.2044	-141.099	58.8144	-85.5068	-156.827	52.2059	-57.2986	-130.029	27.6156	-83.6008	-131.487	54.7264	-75.3016	-146.608	48.3304	-45.8051	-160.65	0.346832	-51.4886	-161.265	3.46251	-18.1086	-190.841	11.2917	-36.5124	
280	2.33333	-196.987	53.4483	-38.3696	-184.949	68.9063	-68.9993	-174.875	67.4473	-94.7825	-159.68	62.6122	-112.774	-192.685	9.89064	-99.6897	-187.209	7.76634	-127.385	-178.361	18.2699	-152.205	-167.116	25.0328	-107.025	-154.871	51.8327	-110.519	-164.878	58.2137	-73.0621	-145.053	26.9031	-95.3309	-144.414	59.805	-86.7807	-154.992	52.1777	-55.5985	-130.375	27.7347	-83.9905	-132.85	56.4497	-73.9058	-148.381	49.2937	-46.8058	-157.841	0.197305	-48.4808	-159.074	5.55237	-13.8133	-187.467	12.0648	-34.7052	
281	2.34167	-193.568	51.6219	-38.6176	-185.561	69.062	-69.4889	-176.89	70.5196	-92.1511	-159.564	59.2568	-109.553	-191.504	10.9912	-98.2099	-187.322	12.453	-130.929	-173.031	33.3369	-148.182	-165.826	24.603	-108.62	-155.032	53.712	-107.7	-160.401	56.1556	-73.8791	-145.938	30.3164	-97.6405	-140.095	58.1213	-88.3911	-158.541	53.3926	-58.0459	-128.146	25.9445	-82.0702	-135.868	56.2079	-74.7766	-149.675	47.7987	-45.8901	-158.434	1.93122	-48.9863	-160.449	6.24975	-15.4251	-187.735	13.5226	-35.7826	
282	2.35	-196.258	53.9342	-40.8404	-183.967	69.4746	-64.4287	-178.876	73.5605	-91.6824	-159.451	62.1136	-113.322	-192.181	11.3011	-101.321	-186.065	16.2915	-128.586	-168.923	43.6169	-141.671	-161.272	24.4505	-107.089	-155.35	53.9397	-110.191	-160.083	59.0901	-75.8938	-146.113	30.7261	-97.8937	-142.574	59.5488	-88.9826	-153.81	53.7289	-54.9541	-131.3	29.5413	-84.2018	-132.486	58.1582	-72.9683	-149.555	50.7654	-46.9169	-159.903	0.412537	-48.2578	-157.991	6.83893	-15.1997	-191.509	13.4939	-36.4263	
